<?xml version="1.0" encoding="utf-8"?>
<!-- Generator: Adobe Illustrator 22.0.0, SVG Export Plug-In . SVG Version: 6.00 Build 0)  -->
<svg version="1.1" id="Capa_1" xmlns="http://www.w3.org/2000/svg" xmlns:xlink="http://www.w3.org/1999/xlink" x="0px" y="0px"
	 viewBox="0 0 246.1 246.1" style="enable-background:new 0 0 246.1 246.1;" xml:space="preserve">
<style type="text/css">
	.st0{fill:#929799;}
</style>
<g>
	<g>
		<path class="st0" d="M20.5,214.4H24c-3.3-6.1-5.3-13.4-5.3-21.3v-80.3c0-7.9,1.9-15.2,5.3-21.3h-3.5C9.2,91.5,0,100.6,0,112v81.9
			C0,205.2,9.2,214.4,20.5,214.4z"/>
		<path class="st0" d="M76,214.4h149.6c11.3,0,20.5-9.2,20.5-20.5V112c0-11.3-9.2-20.5-20.5-20.5h-12.5v-41
			c0-15.6-11.9-28.3-26.6-28.3h-76.5c-14.7,0-26.6,12.7-26.6,28.3v41H76c3.3,6.1,5.3,13.4,5.3,21.3v80.3
			C81.3,201,79.3,208.3,76,214.4z M205.1,200c-4.9,0-8.9-4-8.9-8.9c0-4.9,4-8.9,8.9-8.9c4.9,0,8.9,4,8.9,8.9
			C214,196,210,200,205.1,200z M216.1,135.1v33.6H102v-33.6H216.1z M95.7,50.5c0-8.8,6.4-16,14.3-16h76.5c7.9,0,14.3,7.2,14.3,16
			v45.1c0,8.8-6.4,16-14.3,16h-76.5c-7.9,0-14.3-7.2-14.3-16C95.7,95.6,95.7,50.5,95.7,50.5z"/>
		<path class="st0" d="M50,224c13.1,0,23.7-13.8,23.7-30.9v-80.3c0-17.1-10.6-30.9-23.7-30.9c-13.1,0-23.7,13.8-23.7,30.9v80.3
			C26.3,210.1,36.9,224,50,224z"/>
		<path class="st0" d="M109.5,55.2h77.1c2.6,0,4.8-2.1,4.8-4.8c0-2.6-2.1-4.8-4.8-4.8h-77.1c-2.6,0-4.8,2.1-4.8,4.8
			C104.7,53,106.8,55.2,109.5,55.2z"/>
		<path class="st0" d="M109.5,77.3h77.1c2.6,0,4.8-2.1,4.8-4.8s-2.1-4.8-4.8-4.8h-77.1c-2.6,0-4.8,2.1-4.8,4.8
			C104.7,75.2,106.8,77.3,109.5,77.3z"/>
		<path class="st0" d="M109.5,99.4h77.1c2.6,0,4.8-2.1,4.8-4.8c0-2.6-2.1-4.8-4.8-4.8h-77.1c-2.6,0-4.8,2.1-4.8,4.8
			C104.7,97.3,106.8,99.4,109.5,99.4z"/>
	</g>
</g>
</svg>
