<?xml version="1.0" encoding="utf-8"?>
<!-- Generator: Adobe Illustrator 22.0.0, SVG Export Plug-In . SVG Version: 6.00 Build 0)  -->
<svg version="1.1" id="Layer_1" xmlns="http://www.w3.org/2000/svg" xmlns:xlink="http://www.w3.org/1999/xlink" x="0px" y="0px"
	 viewBox="0 0 5.7 10.9" style="enable-background:new 0 0 5.7 10.9;" xml:space="preserve">
<style type="text/css">
	.st0{fill:#8d2a73;}
</style>
<title>ico_facebook_2</title>
<g id="Layer_2_1_">
	<g id="Layer_1-2">
		<path class="st0" d="M4.5,1.8c0.3,0,0.7,0,1,0h0.2V0.1L5.1,0c-0.3,0-0.7,0-1,0C3.6,0,3.1,0.1,2.6,0.5C2.2,0.8,1.8,1.3,1.8,1.9
			c0,0.3-0.1,0.5-0.1,0.8c0,0.4,0,0.8,0,1.2V4H0v2h1.7v4.9h2.1V6h1.7c0.1-0.7,0.2-1.3,0.3-2H3.7c0,0,0-1,0-1.4S4.1,1.9,4.5,1.8z"/>
	</g>
</g>
</svg>
