<?xml version="1.0" encoding="utf-8"?>
<!-- Generator: Adobe Illustrator 22.0.0, SVG Export Plug-In . SVG Version: 6.00 Build 0)  -->
<svg version="1.1" id="Layer_1" xmlns="http://www.w3.org/2000/svg" xmlns:xlink="http://www.w3.org/1999/xlink" x="0px" y="0px"
	 viewBox="0 0 9.6 9.6" style="enable-background:new 0 0 9.6 9.6;" xml:space="preserve">
<style type="text/css">
	.st0{fill:#8d2a73;}
</style>
<title>ico_linkedin_2</title>
<g id="Layer_2_1_">
	<g id="Layer_1-2">
		<path class="st0" d="M0.2,3.2h2v6.4h-2L0.2,3.2z M1.2,0c0.6,0,1.2,0.5,1.2,1.2S1.8,2.3,1.2,2.3S0,1.8,0,1.2c0,0,0,0,0,0
			C0,0.5,0.5,0,1.2,0"/>
		<path class="st0" d="M3.4,3.2h1.9v0.9l0,0C5.7,3.4,6.4,3,7.2,3c2,0,2.4,1.3,2.4,3.1v3.5h-2V6.5c0-0.8,0-1.7-1-1.7S5.4,5.6,5.4,6.4
			v3.2h-2L3.4,3.2z"/>
	</g>
</g>
</svg>
