<svg xmlns="http://www.w3.org/2000/svg" viewBox="0 0 662.4 420.8" enable-background="new 0 0 662.4 420.8"><style type="text/css">g#Logo_2013_1_ {fill:#fff;stroke:#fff;opacity:1;} .st0{display:none;} /*g#Logo_2013_1_{ stroke-dasharray: 1400; stroke-dashoffset: 1400; animation: dash 8s linear forwards; transition: fill 1s ease-in-out; } @keyframes dash { to { stroke-dashoffset: 0; fill:#fff; } }*/</style><g id="quadri_x2B_repères"><g id="Logo_2013_1_"><path d="M377.6 53.3l-4.9 21.8H337l-2.9 14.1H365l-4.7 20.4H331l-7.3 34.5h-24l18.7-90.8zM547.2 75.1L533.3 144h22.9s3.1-14.7 5.6-27.7c2.9-12 7.2-18 19.2-18l3.3-23.2s-12.8-1.2-16.9 6.1c1.3-6.1 1.3-6.1 1.3-6.1s-21.5 0-21.5 0zM537.5 75.1L523.2 144h-20.4l1-4.5s-4.9 6.4-14.4 6.4-18.8-7.4-16.3-23.5 9.7-47.2 9.7-47.2h22.1s-7.2 34.4-8.9 43c-1.6 8.7 1.7 8.1 2.7 8.1s6.2-.8 8.3-9.5c2.1-8.7 8.9-41.6 8.9-41.6l21.6-.1zM429.3 75.1L415 144h-20.4l1.1-4.5s-5 6.4-14.5 6.4-18.8-7.4-16.3-23.5 9.7-47.2 9.7-47.2h22.1s-7.2 34.4-8.9 43c-1.7 8.7 1.6 8.1 2.7 8.1s6.2-.8 8.3-9.5c2.1-8.7 8.9-41.6 8.9-41.6l21.6-.1zM477.8 75.1L473.3 95h-14.2s-5 23.6-5.7 26.8c-.7 3.2.8 5.7 5.6 5 4.7-.7 9.2-1.6 9.2-1.6l-4.1 18.9s-4.4 1.3-14.8 1.3c-10.3 0-19.1-5.4-18.6-16.2s6.9-34.3 6.9-34.3h-9.3l4-19.8h10.4l4.4-17.1H467l-3.3 17.1s14.1 0 14.1 0zM540.9 182.8l-4.4 19.9h-14.2s-5 23.7-5.7 26.8c-.7 3.2.8 5.7 5.6 5 4.7-.7 9.2-1.5 9.2-1.5l-4.1 18.9s-4.4 1.3-14.8 1.3c-10.3 0-19.1-5.4-18.6-16.2.5-10.9 6.9-34.3 6.9-34.3h-9.3l4-19.9h10.4l4.5-17h19.7l-3.3 17h14.1zM491.9 182.8l-14.6 69.5h-23.1l14.2-69.5zM479.8 179c15.3 0 16.1-11.3 16.1-12.8s-.1-11.3-12.5-11.3-15.5 10.9-15.5 13.8c-.1 2.9 2 10.3 11.9 10.3zM396.1 182.7l-14.6 69.6h-23.2l14.2-69.6zM384 179c15.3 0 16.1-11.3 16.1-12.8s-.2-11.3-12.5-11.3c-12.4 0-15.6 10.9-15.6 13.8s2.1 10.3 12 10.3zM621.9 252.3l18.4-92.7h-22.5l-18.5 92.7zM318.4 159.6c-16.2 0-22.2 0-22.2 0l-18.9 92.6s18.9 0 35.9 0 31.1-5.1 41.5-27.9c10.3-22.9 3.2-43-3.2-51.9-6.2-8.9-16.8-12.8-33.1-12.8zm16.4 48.1c-4 23-15.4 24.1-19.7 24.1s-10.6.1-10.6.1l10.6-51.5s2.6-.1 7.7-.1 16 4.4 12 27.4zM437 182.2c-16.6-3.2-33.4 3.8-37.7 16.2-4.2 12.4 3.8 20.2 3.8 20.2s-10.2 4-12 14c-.8 7.2 3 12.6 3 12.6s-12.4 4.8-10 16.4c2.4 11.6 16.6 15.4 38.1 13.4 21.4-2 30-9.6 30.8-26.2S433 231 427.4 231s-15.1.7-13.8-2.8c.7-2.1 2.4-2.8 2.4-2.8s21.9 5.2 32.1-5.8 11.6-22.9.8-32.7c1.6-2.6 7.4-2.4 11-.8 2.2-18 2.2-18 2.2-18s-20.3-5.8-25.1 14.1zm-17.4 70.9c7.3-.4 13.4.5 12.4 2.7s-5 4.2-14.9 4.2c-9.8 0-13.1-2.5-13.1-4.2 0-1.8 3.4-3.8 3.4-3.8s4.8 1.6 12.2 1.1zm15.5-48.7c-.7 3.5-3 7.6-8.8 7.6s-7.1-4.6-6.2-8.3c.9-3.6 3.6-7.3 8.2-7.3 6.1.1 7.5 4.5 6.8 8zM573.7 181.4c-28.1 0-33.3 24.9-33.3 24.9s0 .3 22.7 0c.3-3.3 3.6-7.7 8.7-7.7s6.9 2.5 6.5 5-.8 4.3-.8 4.1c-13.2 0-38.3 2.6-42.4 21.1-4.1 18.4 8.5 25.9 19.4 25.9 11 0 16.4-6.1 16.8-5.8.4.3-.2 3.4-.2 3.4s0 .3 22.2 0c-1.2-2-.3-11.6.3-13.8s5.8-26.8 6.6-31.8c.8-5 1.6-25.3-26.5-25.3zM561.8 238c-8.5 0-6.6-16.9 12.7-16.6 0 0-4.2 16.6-12.7 16.6z"/><path d="M119.1 55.5c-36.2 0-66.8 22.2-73.5 58.2-6.2 33.7-22.2 127.3-24.1 138.7v2.3s96.2 0 157.7 0 88.6-40.4 93.2-65.4c4.5-25 24.4-133.7 24.4-133.7l.8-2.3c-14-.1-144.3 2.2-178.5 2.2zm133 130.6c-5.8 25.8-32.5 49.9-66.7 49.9-34.1 0-66.7-23.8-61.5-67.7s58.9-52.3 58.9-52.3v-2.3L133 116c-9.6 0-21.4 7-23.4 17-1.5 7.5-2.6 11.1-3 13v2.3H124s-4.2 6.1-6 16.9c-1.8 10.8.2 21.5.2 21.5H100L91.2 236H39.8s19.5-102.9 23.7-119.7 25.3-44.7 61.7-44.7 79.1 0 79.1 0L188.6 159c-6 0-21.6 5.6-21.6 16.6 0 13.2 11.8 15.6 16 15.6s19-.2 23-21 17.7-98.6 17.7-98.6h50.6c0-.1-16.4 88.7-22.2 114.5z" class="st0"/><path d="M119.1 53.2c-36.2 0-66.8 22.2-73.5 58.2-6.7 35.9-24.1 141-24.1 141s96.2 0 157.7 0 88.6-40.4 93.2-65.4c4.5-25 25.3-133.7 25.3-133.7s-142.4-.1-178.6-.1zm133 130.6c-5.8 25.8-32.5 49.9-66.7 49.9-34.1 0-66.7-23.8-61.5-67.7s58.9-52.3 58.9-52.3H133c-9.6 0-21.4 7-23.4 17s-3 15.3-3 15.3H124s-4.2 6.1-6 16.9c-1.8 10.8-.4 21.5-.4 21.5H100l-8.8 49.3H41.5s17.8-102.9 22-119.7c4.2-16.7 25.3-44.7 61.7-44.7s79.1 0 79.1 0l-15.6 87.5c-6 0-21.6 5.6-21.6 16.6 0 13.2 11.8 15.6 16 15.6s19-.2 23-21 19-98.6 19-98.6h49.3c-.1-.1-16.5 88.7-22.3 114.4z"/></g><g id="Logo_2013_1_"><path d="M21.2 321.7l-1.7-35.2h4.4l.7 21.1c.2 4.5.1 6.9 0 9.2h.1c.8-2.3 1.7-4.6 3.6-8.9l9.7-21.4h4.6l.7 20.3c.2 4.6.2 7.6.1 9.9h.1c1-3 2.1-5.9 3.4-9l9.4-21.1h4.5l-16.1 35.2H40l-.9-20c-.2-4.1-.2-6.1.1-10.1h-.1c-1.1 3.3-2.1 6.1-3.5 9.2l-9.8 20.9h-4.6v-.1zM75.3 320.3c-1.9 1-4.9 2-8.3 2-6.6 0-9.5-4.6-9.5-10.2 0-7.6 5.6-16.2 13.7-16.2 4.8 0 7.3 2.9 7.3 6.5 0 6.6-7.4 8.4-16.6 8.2-.2 1.1-.1 3.4.5 4.8 1 2.3 3 3.4 5.6 3.4 2.9 0 5.2-.9 6.7-1.7l.6 3.2zm-4.8-21c-4.1 0-7.1 4-8.2 8 6.8.1 12.1-.8 12.1-4.8-.1-2.1-1.6-3.2-3.9-3.2zM91.7 284.6L88.4 301h.1c2.2-3.4 5.4-5.2 8.8-5.2 5.5 0 7.5 4.6 7.5 9.1 0 7.8-5.5 17.3-15.6 17.3-4.4 0-7.7-1.8-7.7-6.5 0-1.3.2-2.8.5-4l5.4-27.2h4.3v.1zM86.3 312c-.2.9-.4 1.9-.3 3.2 0 2.4 1.4 3.7 4 3.7 6.5 0 10.4-7.8 10.4-13.4 0-3.1-1.3-6-4.8-6-3.7 0-7.5 3.9-8.8 9.8l-.5 2.7zM135.3 320.3c-1.9 1-4.9 2-8.3 2-6.6 0-9.5-4.6-9.5-10.2 0-7.6 5.6-16.2 13.7-16.2 4.7 0 7.3 2.9 7.3 6.5 0 6.6-7.4 8.4-16.7 8.2-.2 1.1-.1 3.4.5 4.8 1 2.3 3 3.4 5.6 3.4 3 0 5.2-.9 6.7-1.7l.7 3.2zm-4.8-21c-4.1 0-7.1 4-8.2 8 6.8.1 12-.8 12-4.8 0-2.1-1.5-3.2-3.8-3.2zM151.7 290.4l-1.1 6.1h6l-.7 3.4h-6l-2.3 12.3c-.3 1.4-.5 2.7-.5 4 0 1.5.7 2.5 2.4 2.5.8 0 1.4-.1 2-.2l-.2 3.4c-.8.3-2.1.5-3.3.5-3.8 0-5.3-2.3-5.3-4.9 0-1.5.2-2.9.6-4.7l2.4-12.8h-3.6l.6-3.4h3.6l.9-4.7 4.5-1.5zM166.4 321.7l6.6-35.2h4.7l8 19.9c1.6 4 2.3 6.8 3 9.8l.1-.1c.2-3.2.6-6.1 1.5-11l3.5-18.7h4l-6.6 35.2H187l-8-19.9c-1.7-4.3-2.4-6.8-3.2-10.1l-.2.1c-.4 3.3-.9 6.8-1.8 11.6l-3.5 18.4h-3.9zM223 306.4c0 7.8-5.5 15.9-13.9 15.9-6.3 0-9.8-4.7-9.8-10.4 0-8.4 5.7-16 13.9-16 6.7 0 9.8 5.1 9.8 10.5zm-19.3 5.3c0 4.1 2.3 7.1 5.9 7.1 5.1 0 8.9-6.6 8.9-12.5 0-2.9-1.3-7-5.8-7-5.4 0-9 6.6-9 12.4zM250.3 296.4l-3.4 17.9c-.6 2.8-.9 5.3-1.1 7.4H242l.6-4.7h-.1c-2.2 3.3-5.5 5.3-8.8 5.3-3.2 0-6.6-1.6-6.6-7.3 0-1.2.1-2.6.5-4.3l2.7-14.3h4.2l-2.6 14.1c-.3 1.4-.4 2.6-.4 3.7 0 2.6 1 4.4 4 4.4 3.1 0 7.1-3.7 8.1-9.3l2.4-12.9h4.3zM258.7 296.4l2.2 14.4c.4 2.9.7 4.8.8 6.2h.1c.6-1.4 1.2-3 2.7-5.9l7.6-14.7h4.7l-13.9 25.3h-4.2l-4.3-25.3h4.3zM294.7 320.3c-1.9 1-4.9 2-8.3 2-6.6 0-9.5-4.6-9.5-10.2 0-7.6 5.6-16.2 13.6-16.2 4.8 0 7.3 2.9 7.3 6.5 0 6.6-7.4 8.4-16.7 8.2-.2 1.1-.1 3.4.5 4.8 1 2.3 3 3.4 5.6 3.4 2.9 0 5.2-.9 6.7-1.7l.8 3.2zm-4.8-21c-4.1 0-7.1 4-8.2 8 6.8.1 12.1-.8 12.1-4.8 0-2.1-1.6-3.2-3.9-3.2zM300.1 321.7l7-37.1h4.3l-7 37.1h-4.3zM312 321.7l7-37.1h4.3l-7 37.1H312zM341.8 320.3c-1.9 1-4.9 2-8.3 2-6.6 0-9.5-4.6-9.5-10.2 0-7.6 5.6-16.2 13.7-16.2 4.8 0 7.3 2.9 7.3 6.5 0 6.6-7.4 8.4-16.7 8.2-.2 1.1-.1 3.4.5 4.8 1 2.3 3 3.4 5.6 3.4 3 0 5.2-.9 6.7-1.7l.7 3.2zm-4.7-21c-4.1 0-7.1 4-8.2 8 6.8.1 12-.8 12-4.8 0-2.1-1.6-3.2-3.8-3.2zM347.5 317.3c1.2.7 3.3 1.6 5.4 1.6 2.9 0 4.8-1.9 4.8-4.1 0-2-.9-3.2-3.5-4.7-2.9-1.6-4.5-3.9-4.5-6.5 0-4.4 3.8-7.8 9-7.8 2.3 0 4.3.6 5.2 1.3l-1.2 3.3c-.9-.5-2.5-1.1-4.3-1.1-2.6 0-4.4 1.6-4.4 3.8 0 1.8 1.2 3 3.5 4.2 2.8 1.6 4.7 3.8 4.7 6.6 0 5.3-4.3 8.3-9.5 8.3-2.7-.1-5.1-.8-6.3-1.7l1.1-3.2zM388 290.3h-10.2l.7-3.8h24.7l-.7 3.8h-10.2l-5.9 31.4h-4.3l5.9-31.4zM415 320.3c-1.9 1-4.9 2-8.3 2-6.6 0-9.5-4.6-9.5-10.2 0-7.6 5.6-16.2 13.6-16.2 4.8 0 7.3 2.9 7.3 6.5 0 6.6-7.4 8.4-16.7 8.2-.2 1.1-.1 3.4.5 4.8 1 2.3 3 3.4 5.6 3.4 2.9 0 5.2-.9 6.7-1.7l.8 3.2zm-4.7-21c-4.1 0-7.1 4-8.2 8 6.8.1 12-.8 12-4.8 0-2.1-1.6-3.2-3.8-3.2zM437.6 320.7c-1.3.7-3.9 1.6-7.2 1.6-6.5 0-9.6-4.4-9.6-9.8 0-8.6 6.3-16.5 15.3-16.5 2.3 0 4.4.7 5.2 1.1l-1.2 3.5c-1-.5-2.4-1-4.2-1-6.5 0-10.6 6.5-10.6 12.4 0 4.1 2.1 6.7 6.2 6.7 2.6 0 4.5-.8 5.8-1.4l.3 3.4zM442.3 321.7l7-37.1h4.3l-3.1 16.2h.1c2.1-3.1 5.2-5 9-5 2.8 0 6.2 1.7 6.2 6.8 0 1.3-.2 3-.4 4.2l-2.8 14.8h-4.3l2.8-14.6c.1-.9.3-2.1.3-3.5 0-2.3-1.1-4.1-3.9-4.1-3.3 0-7.5 3.9-8.5 9.6l-2.3 12.7h-4.4zM469.9 321.7l3.3-17.9c.6-2.8.9-5.3 1.2-7.4h3.8l-.6 5h.1c2.2-3.6 5.6-5.5 9.3-5.5 3 0 6.4 1.7 6.4 7 0 1.1-.2 2.7-.5 4.1l-2.8 14.8h-4.2l2.7-14.6c.2-1 .3-2.2.3-3.2 0-2.5-1-4.4-3.9-4.4-3 0-7.4 3.7-8.5 10l-2.3 12.3h-4.3v-.2zM521.6 306.4c0 7.8-5.5 15.9-13.9 15.9-6.3 0-9.8-4.7-9.8-10.4 0-8.4 5.7-16 13.9-16 6.7 0 9.8 5.1 9.8 10.5zm-19.3 5.3c0 4.1 2.3 7.1 5.9 7.1 5.1 0 8.9-6.6 8.9-12.5 0-2.9-1.3-7-5.8-7-5.4 0-9 6.6-9 12.4zM524.6 321.7l7-37.1h4.3l-7 37.1h-4.3zM560.4 306.4c0 7.8-5.5 15.9-13.9 15.9-6.3 0-9.8-4.7-9.8-10.4 0-8.4 5.7-16 13.8-16 6.8 0 9.9 5.1 9.9 10.5zm-19.2 5.3c0 4.1 2.3 7.1 5.9 7.1 5.1 0 8.9-6.6 8.9-12.5 0-2.9-1.4-7-5.8-7-5.5 0-9 6.6-9 12.4zM563.6 327.5c1.5 1 4 1.7 6.6 1.7 4.2 0 7.5-2.1 9-9l.8-3.8c-2.2 3.6-5.3 5.4-8.7 5.4-5.1 0-7.7-4.3-7.7-8.8 0-8.6 6.2-17.1 15.9-17.1 2.9 0 6.1.8 8.1 1.8l-3.9 20.9c-1 5.4-2.4 9-5 11.3-2.5 2.1-5.9 2.8-8.7 2.8-3 0-5.9-.7-7.5-1.8l1.1-3.4zm19.2-27.3c-.8-.4-2.4-.8-4.1-.8-6.3 0-10.6 6.6-10.6 12.8-.1 2.8 1 6.1 4.8 6.1 3.7 0 7.4-4.7 8.3-9.6l1.6-8.5zM590.4 321.7l4.8-25.3h4.2l-4.7 25.3h-4.3zm5.6-32.2c.1-1.7 1.3-2.9 2.8-2.9 1.6 0 2.6 1.1 2.6 2.7 0 1.7-1.2 2.9-2.9 2.9-1.5 0-2.5-1.2-2.5-2.7zM620.3 320.3c-1.9 1-4.9 2-8.3 2-6.6 0-9.5-4.6-9.5-10.2 0-7.6 5.6-16.2 13.6-16.2 4.8 0 7.3 2.9 7.3 6.5 0 6.6-7.4 8.4-16.7 8.2-.2 1.1-.1 3.4.5 4.8 1 2.3 3 3.4 5.6 3.4 2.9 0 5.2-.9 6.7-1.7l.8 3.2zm-4.7-21c-4.1 0-7.1 4-8.2 8 6.8.1 12-.8 12-4.8 0-2.1-1.6-3.2-3.8-3.2zM626 317.3c1.2.7 3.3 1.6 5.4 1.6 2.9 0 4.8-1.9 4.8-4.1 0-2-.9-3.2-3.5-4.7-2.9-1.6-4.5-3.9-4.5-6.5 0-4.4 3.8-7.8 9-7.8 2.3 0 4.3.6 5.2 1.3l-1.2 3.3c-.9-.5-2.5-1.1-4.4-1.1-2.6 0-4.4 1.6-4.4 3.8 0 1.8 1.2 3 3.5 4.2 2.8 1.6 4.7 3.8 4.7 6.6 0 5.3-4.2 8.3-9.5 8.3-2.7-.1-5.1-.8-6.2-1.7l1.1-3.2z"/></g></g></svg>